<?xml version="1.0" encoding="UTF-8"?>
<svg xmlns="http://www.w3.org/2000/svg" xmlns:xlink="http://www.w3.org/1999/xlink" width="64px" height="64px" viewBox="0 0 64 64" version="1.1">
<defs>
<filter id="alpha" filterUnits="objectBoundingBox" x="0%" y="0%" width="100%" height="100%">
  <feColorMatrix type="matrix" in="SourceGraphic" values="0 0 0 0 1 0 0 0 0 1 0 0 0 0 1 0 0 0 1 0"/>
</filter>
<mask id="mask0">
  <g filter="url(#alpha)">
<rect x="0" y="0" width="64" height="64" style="fill:rgb(0%,0%,0%);fill-opacity:0.2;stroke:none;"/>
  </g>
</mask>
<clipPath id="clip1">
  <rect x="0" y="0" width="64" height="64"/>
</clipPath>
<g id="surface5" clip-path="url(#clip1)">
<path style=" stroke:none;fill-rule:nonzero;fill:rgb(100%,100%,100%);fill-opacity:1;" d="M 61.484375 19.542969 C 59.871094 15.734375 57.566406 12.3125 54.628906 9.371094 C 51.6875 6.433594 48.265625 4.128906 44.457031 2.515625 C 40.511719 0.847656 36.320312 0 32 0 C 31.554688 0 31.109375 0.0117188 30.667969 0.0273438 C 34.515625 0.183594 38.25 1.019531 41.789062 2.515625 C 45.601562 4.128906 49.023438 6.433594 51.960938 9.371094 C 54.898438 12.3125 57.207031 15.734375 58.816406 19.542969 C 60.488281 23.488281 61.332031 27.679688 61.332031 32 C 61.332031 36.320312 60.488281 40.511719 58.816406 44.457031 C 57.207031 48.265625 54.898438 51.6875 51.960938 54.628906 C 49.023438 57.566406 45.601562 59.871094 41.789062 61.484375 C 38.25 62.980469 34.515625 63.816406 30.667969 63.972656 C 31.109375 63.992188 31.554688 64 32 64 C 36.320312 64 40.511719 63.152344 44.457031 61.484375 C 48.265625 59.871094 51.6875 57.566406 54.628906 54.628906 C 57.566406 51.6875 59.871094 48.265625 61.484375 44.457031 C 63.152344 40.511719 64 36.320312 64 32 C 64 27.679688 63.152344 23.488281 61.484375 19.542969 Z M 61.484375 19.542969 "/>
</g>
<mask id="mask1">
  <g filter="url(#alpha)">
<rect x="0" y="0" width="64" height="64" style="fill:rgb(0%,0%,0%);fill-opacity:0.101961;stroke:none;"/>
  </g>
</mask>
<clipPath id="clip2">
  <rect x="0" y="0" width="64" height="64"/>
</clipPath>
<g id="surface8" clip-path="url(#clip2)">
<path style=" stroke:none;fill-rule:nonzero;fill:rgb(0%,0%,0%);fill-opacity:1;" d="M 2.515625 44.457031 C 4.128906 48.265625 6.433594 51.6875 9.371094 54.625 C 12.3125 57.566406 15.734375 59.871094 19.542969 61.484375 C 23.488281 63.152344 27.679688 64 32 64 C 32.445312 64 32.890625 63.988281 33.332031 63.972656 C 29.484375 63.816406 25.75 62.980469 22.210938 61.484375 C 18.398438 59.871094 14.976562 57.566406 12.039062 54.625 C 9.101562 51.6875 6.792969 48.265625 5.183594 44.457031 C 3.511719 40.511719 2.667969 36.320312 2.667969 32 C 2.667969 27.679688 3.511719 23.488281 5.183594 19.542969 C 6.792969 15.734375 9.101562 12.308594 12.039062 9.375 C 14.976562 6.433594 18.398438 4.128906 22.210938 2.515625 C 25.75 1.019531 29.484375 0.183594 33.332031 0.0273438 C 32.890625 0.0117188 32.445312 0 32 0 C 27.679688 0 23.488281 0.847656 19.542969 2.515625 C 15.734375 4.128906 12.3125 6.433594 9.371094 9.375 C 6.433594 12.3125 4.128906 15.734375 2.515625 19.542969 C 0.847656 23.488281 0 27.679688 0 32 C 0 36.320312 0.847656 40.511719 2.515625 44.457031 Z M 2.515625 44.457031 "/>
</g>
</defs>
<g id="surface1">
<path style=" stroke:none;fill-rule:nonzero;fill:rgb(92.941176%,33.333333%,39.215686%);fill-opacity:1;" d="M 61.484375 19.542969 C 59.871094 15.734375 57.566406 12.3125 54.628906 9.371094 C 51.6875 6.433594 48.265625 4.128906 44.457031 2.515625 C 40.511719 0.847656 36.320312 0 32 0 C 27.679688 0 23.488281 0.847656 19.542969 2.515625 C 15.734375 4.128906 12.3125 6.433594 9.371094 9.371094 C 6.433594 12.3125 4.128906 15.734375 2.515625 19.542969 C 0.847656 23.488281 0 27.679688 0 32 C 0 36.320312 0.847656 40.511719 2.515625 44.457031 C 4.128906 48.265625 6.433594 51.6875 9.371094 54.625 C 12.3125 57.566406 15.734375 59.871094 19.542969 61.484375 C 23.488281 63.152344 27.679688 64 32 64 C 36.320312 64 40.511719 63.152344 44.457031 61.484375 C 48.265625 59.871094 51.6875 57.566406 54.628906 54.625 C 57.566406 51.6875 59.871094 48.265625 61.484375 44.457031 C 63.152344 40.511719 64 36.320312 64 32 C 64 27.679688 63.152344 23.488281 61.484375 19.542969 Z M 61.484375 19.542969 "/>
<path style=" stroke:none;fill-rule:nonzero;fill:rgb(90.196078%,91.372549%,92.941176%);fill-opacity:1;" d="M 0.0117188 32.898438 C 0.121094 36.898438 0.960938 40.785156 2.515625 44.457031 C 4.128906 48.265625 6.433594 51.6875 9.371094 54.625 C 12.3125 57.566406 15.734375 59.871094 19.542969 61.484375 C 23.488281 63.152344 27.679688 64 32 64 C 36.320312 64 40.511719 63.152344 44.457031 61.484375 C 48.265625 59.871094 51.6875 57.566406 54.628906 54.625 C 57.566406 51.6875 59.871094 48.265625 61.484375 44.457031 C 63.039062 40.785156 63.878906 36.898438 63.988281 32.898438 Z M 0.0117188 32.898438 "/>
<path style=" stroke:none;fill-rule:nonzero;fill:rgb(26.27451%,29.019608%,32.941176%);fill-opacity:1;" d="M 63.847656 35.152344 C 63.949219 34.109375 64 33.058594 64 32 C 64 30.808594 63.933594 29.632812 63.808594 28.464844 C 62.21875 28.707031 59.933594 29.027344 57.058594 29.34375 C 51.597656 29.949219 42.820312 30.667969 32 30.667969 C 21.179688 30.667969 12.402344 29.949219 6.941406 29.34375 C 4.066406 29.027344 1.78125 28.707031 0.191406 28.464844 C 0.0664062 29.632812 0 30.8125 0 32 C 0 33.058594 0.0507812 34.109375 0.152344 35.152344 C 5.34375 35.933594 16.78125 37.332031 32 37.332031 C 47.21875 37.332031 58.65625 35.933594 63.847656 35.152344 Z M 63.847656 35.152344 "/>
<path style=" stroke:none;fill-rule:nonzero;fill:rgb(90.196078%,91.372549%,92.941176%);fill-opacity:1;" d="M 38.667969 33.332031 C 38.667969 37.015625 35.679688 40 32 40 C 28.316406 40 25.332031 37.015625 25.332031 33.332031 C 25.332031 29.652344 28.316406 26.667969 32 26.667969 C 35.679688 26.667969 38.667969 29.652344 38.667969 33.332031 Z M 38.667969 33.332031 "/>
<path style=" stroke:none;fill-rule:nonzero;fill:rgb(26.27451%,29.019608%,32.941176%);fill-opacity:1;" d="M 32 21.332031 C 25.382812 21.332031 20 26.71875 20 33.332031 C 20 39.949219 25.382812 45.332031 32 45.332031 C 38.617188 45.332031 44 39.949219 44 33.332031 C 44 26.71875 38.617188 21.332031 32 21.332031 Z M 32 38.667969 C 29.058594 38.667969 26.667969 36.273438 26.667969 33.332031 C 26.667969 30.394531 29.058594 28 32 28 C 34.941406 28 37.332031 30.394531 37.332031 33.332031 C 37.332031 36.273438 34.941406 38.667969 32 38.667969 Z M 32 38.667969 "/>
<use xlink:href="#surface5" mask="url(#mask0)"/>
<use xlink:href="#surface8" mask="url(#mask1)"/>
</g>
</svg>
